# xmcd CD database file
#
# Track frame offsets:
#	150
#	11681
#	29613
#	42646
#	54582
#	65582
#	89486
#	108040
#	122949
#	138630
#	153794
#	166123
#
# Disc length: 2428 seconds
#
# Revision: 0
# Processed by: cddbd v1.5.2PL0 Copyright (c) Steve Scherf et al.
# Submitted via: CDex 1.51
#
DISCID=a2097a0c
DTITLE=Bridie King And The Harmony Queens - Way Back Home
DYEAR=2008
DGENRE=Blues
TTITLE0=Piano Player Blues
TTITLE1=Tossin' And Turnin'
TTITLE2=Bono
TTITLE3=The Way You Love Me
TTITLE4=How Long Blues
TTITLE5=Make Room
TTITLE6=Way Back Home
TTITLE7=Every Day Will Be Like A Holiday
TTITLE8=Black Angel
TTITLE9=Say You Will
TTITLE10=Love Is The Only Thing
TTITLE11=Island In The Sun
EXTD=YEAR: 2008
EXTT0=
EXTT1=
EXTT2=
EXTT3=
EXTT4=
EXTT5=
EXTT6=
EXTT7=
EXTT8=
EXTT9=
EXTT10=
EXTT11=
PLAYORDER=
